<svg width="76" height="14" viewBox="0 0 76 14" fill="none" xmlns="http://www.w3.org/2000/svg">
<path d="M6.25485 6.7915C6.25485 5.5464 5.29344 4.66857 4.12143 4.66857C2.94027 4.66857 1.98802 5.56432 1.98802 6.7915C1.98802 8.00972 2.94943 8.91442 4.12143 8.91442C5.29344 8.92338 6.25485 8.04555 6.25485 6.7915ZM6.27316 10.5089V9.54145C5.68716 10.2133 4.82647 10.6253 3.79181 10.6253C1.64008 10.6253 0.00109863 8.99504 0.00109863 6.7915C0.00109863 4.60587 1.69501 2.94873 3.83759 2.94873C4.84478 2.94873 5.69632 3.36078 6.27316 4.01467V3.08309H8.20514V10.5089H6.27316Z" fill="black"/>
<path d="M17.5979 8.86071C16.9203 8.86071 16.7372 8.61886 16.7372 8.00079V4.70443H17.9824V3.08313H16.7372V1.27371H14.7594V3.08313H12.2048V2.63525C12.2048 2.00823 12.452 1.77533 13.1479 1.77533H13.5783V0.324219H12.626C10.987 0.324219 10.2179 0.825839 10.2179 2.37549V3.08313H9.11914V4.70443H10.2179V10.5089H12.1957V4.70443H14.7503V8.34118C14.7503 9.85499 15.3637 10.5089 16.9661 10.5089H17.9916V8.86071H17.5979Z" fill="black"/>
<path d="M24.7003 6.12864C24.563 5.16123 23.7298 4.58795 22.75 4.58795C21.7795 4.58795 20.9737 5.15227 20.7723 6.12864H24.7003ZM20.754 7.28416C20.9005 8.38593 21.7245 9.004 22.7867 9.004C23.6199 9.004 24.2608 8.62778 24.6454 8.03659H26.6781C26.202 9.61311 24.7095 10.6253 22.75 10.6253C20.3785 10.6253 18.7121 9.04879 18.7121 6.80941C18.7121 4.57004 20.4701 2.94873 22.7958 2.94873C25.1398 2.94873 26.8337 4.57899 26.8337 6.80941C26.8337 6.97065 26.8154 7.13188 26.788 7.28416H20.754Z" fill="black"/>
<path d="M39.4339 6.7915C39.4339 5.59119 38.4725 4.66857 37.3005 4.66857C36.1193 4.66857 35.1671 5.56432 35.1671 6.7915C35.1671 8.00972 36.1285 8.91442 37.3005 8.91442C38.4725 8.92338 39.4339 8.00076 39.4339 6.7915ZM33.2076 3.08309H35.1396V4.0505C35.7256 3.36973 36.5863 2.94873 37.621 2.94873C39.7452 2.94873 41.4117 4.59691 41.4117 6.78254C41.4117 8.96817 39.7178 10.6343 37.5752 10.6343C36.5863 10.6343 35.7714 10.258 35.2037 9.63998V13.5723H33.2076V3.08309Z" fill="black"/>
<path d="M48.3759 6.7915C48.3759 5.5464 47.4145 4.66857 46.2425 4.66857C45.0613 4.66857 44.109 5.56432 44.109 6.7915C44.109 8.00972 45.0705 8.91442 46.2425 8.91442C47.4145 8.92338 48.3759 8.04555 48.3759 6.7915ZM48.3942 10.5089V9.54145C47.8082 10.2133 46.9475 10.6253 45.9128 10.6253C43.7611 10.6253 42.1221 8.99504 42.1221 6.7915C42.1221 4.60587 43.816 2.94873 45.9586 2.94873C46.9658 2.94873 47.8173 3.36078 48.3942 4.01467V3.08309H50.3262V10.5089H48.3942Z" fill="black"/>
<path d="M29.7112 3.80865C29.7112 3.80865 30.2057 2.94873 31.4051 2.94873C31.9179 2.94873 32.2567 3.11892 32.2567 3.11892V5.01791C32.2567 5.01791 31.5333 4.59691 30.8649 4.67753C30.1965 4.7671 29.7753 5.34038 29.7753 6.11968V10.5178H27.7792V3.08309H29.7112V3.80865Z" fill="black"/>
<path d="M59.3556 3.08301L54.4753 13.5454H52.4151L54.3288 9.50553L51.0875 3.09197H53.4223L55.3177 7.38261L57.2588 3.09197H59.3556V3.08301Z" fill="black"/>
<path d="M74.9356 2.9128L70.0919 0.270342C68.6727 -0.500003 66.8963 0.467407 66.8963 2.01705V2.28578C66.8963 2.52763 67.0337 2.76053 67.2626 2.87697L68.1782 3.37859C68.4438 3.52191 68.7825 3.34276 68.7825 3.04717V2.37535C68.7825 2.03497 69.1671 1.82895 69.4784 1.99914L73.672 4.2833C73.9833 4.45349 73.9833 4.8745 73.672 5.03573L69.4784 7.31989C69.1671 7.49008 68.7825 7.2751 68.7825 6.94368V6.58538C68.7825 5.03573 67.0062 4.06832 65.587 4.83867L60.7525 7.48113C59.3332 8.25147 59.3332 10.1952 60.7525 10.9656L65.587 13.6081C67.0062 14.3784 68.7825 13.411 68.7825 11.8613V11.5926C68.7825 11.3508 68.6452 11.1268 68.4163 11.0014L67.5007 10.4998C67.2351 10.3565 66.8963 10.5356 66.8963 10.8312V11.503C66.8963 11.8434 66.5118 12.0494 66.2005 11.8793L62.0069 9.59509C61.6956 9.4249 61.6956 9.0039 62.0069 8.83371L66.2005 6.5585C66.5118 6.38831 66.8963 6.60329 66.8963 6.93472V7.29302C66.8963 8.84266 68.6727 9.81007 70.0919 9.03973L74.9264 6.39727C76.3548 5.62692 76.3548 3.69211 74.9356 2.9128Z" fill="black"/>
</svg>
