<svg width="74" height="24" viewBox="0 0 74 24" fill="none" xmlns="http://www.w3.org/2000/svg">
<path d="M73.9997 0.878418V17.2994H0V0.878418H73.9997Z" fill="#FFCC00"/>
<path d="M13.0134 3.82666L10.6492 7.0565H23.5345C24.1858 7.0565 24.1772 7.30535 23.8588 7.739C23.5355 8.17922 22.9945 8.94481 22.6652 9.39199C22.4981 9.61892 22.1959 10.0324 23.1972 10.0324H28.4665C28.4665 10.0324 29.3158 8.87026 30.0276 7.89861C30.9962 6.57703 30.1117 3.82679 26.6491 3.82679L13.0134 3.82666Z" fill="#D2002E"/>
<path d="M9.69274 14.3491L14.4415 7.86094H20.3343C20.9856 7.86094 20.9771 8.10979 20.6588 8.54344C20.3355 8.98366 19.7855 9.74111 19.4562 10.1883C19.289 10.4152 18.987 10.8293 19.9881 10.8293H27.8827C27.2262 11.7338 25.0965 14.349 21.2724 14.349L9.69274 14.3491ZM36.8889 10.8285L34.3137 14.3488H27.5208C27.5208 14.3488 30.0945 10.8293 30.0967 10.8293L36.8889 10.8285ZM47.2953 10.0324H30.6803L35.2239 3.82666H42.0148L39.4105 7.38502H42.4418L45.0471 3.82666H51.8373L47.2953 10.0324ZM46.7121 10.8295L44.1358 14.3491H37.3453C37.3453 14.3491 39.9191 10.8295 39.9213 10.8295H46.7121ZM0 12.2173H10.0073L9.46066 12.965H0V12.2173ZM0 10.8295H11.024L10.4763 11.5761H0V10.8295ZM0 13.6059H8.99115L8.44711 14.3491H0V13.6059ZM74 12.965H64.0312L64.5784 12.2174H74V12.965ZM74 14.3491L63.0178 14.3501L63.5618 13.6059H74V14.3491ZM65.5938 10.8295H74V11.5765L65.0471 11.5772L65.5938 10.8295ZM61.242 3.82666L56.6992 10.0322H49.5033C49.5033 10.0322 54.0473 3.82666 54.0496 3.82666H61.242ZM48.9211 10.8295C48.9211 10.8295 48.4247 11.5116 48.1837 11.8394C47.3307 12.9986 48.0848 14.3491 50.8683 14.3491H61.7743L64.3504 10.8295H48.9211Z" fill="#D2002E"/>
<path d="M0 19.9692H74V20.3412H0V19.9692ZM0 21.705H74V22.077H0V21.705ZM0 23.4404H74V23.8124H0V23.4404Z" fill="#FFCC00"/>
<path d="M24.8486 23.8124H27.0757L27.4311 23.3279H25.7738L26.7032 22.0616H28.2125L28.568 21.577H27.0587L27.8829 20.4541H29.5403L29.8959 19.9695H27.6689L24.8486 23.8124ZM27.5818 23.8124H28.2652L30.5947 22.1828L30.5719 23.8124H31.2895L31.2949 21.8029L33.9788 19.9695H33.3295L31.1931 21.445L31.2164 19.9695H30.533L30.5122 21.8139L27.5818 23.8124ZM34.8409 20.4541H35.3251C35.6783 20.4541 36.0729 20.6302 35.7173 21.1146C35.3455 21.621 34.7761 21.7918 34.4228 21.7918H33.859L34.8409 20.4541ZM31.8067 23.8124H32.3762L33.5034 22.2763H34.0615C34.7792 22.2763 35.6905 21.9735 36.3168 21.12C36.9593 20.2446 36.4835 19.9692 35.6691 19.9692H34.6269L31.8067 23.8124ZM35.0865 23.8124H35.6561L36.9086 22.1056H37.2502C37.552 22.1056 37.7402 22.1056 37.6421 22.4799L37.2737 23.8124H37.9231L38.2946 22.2817C38.343 22.0451 38.3183 21.9625 38.19 21.8962L38.1981 21.8852C38.7162 21.808 39.3173 21.4778 39.6608 21.0098C40.3355 20.0905 39.6669 19.9692 38.8808 19.9692H37.9069L35.0865 23.8124ZM38.1208 20.4541H38.6675C39.1917 20.4541 39.3033 20.6743 39.0489 21.0209C38.7782 21.39 38.2895 21.621 37.7483 21.621H37.2642L38.1208 20.4541ZM38.5128 23.8124H40.7399L41.0952 23.3279H39.438L40.3672 22.0616H41.8766L42.2319 21.577H40.7228L41.5469 20.4541H43.2044L43.5601 19.9695H41.3331L38.5128 23.8124ZM46.3034 20.041C46.0987 19.9474 45.8175 19.9033 45.5556 19.9033C44.8379 19.9033 44.0131 20.2669 43.512 20.9495C42.6353 22.1443 44.5177 21.9075 43.8873 22.7664C43.556 23.2177 42.971 23.3941 42.6465 23.3941C42.3558 23.3941 42.095 23.2838 41.958 23.2067L41.5254 23.7188C41.7268 23.8014 41.9437 23.8785 42.2228 23.8785C43.0201 23.8785 43.9135 23.5533 44.5155 22.733C45.4447 21.4669 43.6107 21.6373 44.1523 20.8998C44.4474 20.4979 44.9041 20.3878 45.223 20.3878C45.5193 20.3878 45.6421 20.4375 45.8517 20.5475L46.3034 20.041ZM49.1512 20.041C48.9466 19.9474 48.6655 19.9033 48.4034 19.9033C47.6858 19.9033 46.861 20.2669 46.3599 20.9495C45.4831 22.1443 47.3656 21.9075 46.7351 22.7664C46.404 23.2177 45.8188 23.3941 45.4943 23.3941C45.2037 23.3941 44.9427 23.2838 44.8059 23.2067L44.3732 23.7188C44.5746 23.8014 44.7916 23.8785 45.0705 23.8785C45.8679 23.8785 46.7612 23.5533 47.3632 22.733C48.2926 21.4669 46.4587 21.6373 47.0001 20.8998C47.2951 20.4979 47.752 20.3878 48.0708 20.3878C48.3671 20.3878 48.4902 20.4375 48.6996 20.5475L49.1512 20.041Z" fill="#D2002E"/>
</svg>
