<svg width="67" height="29" viewBox="0 0 67 29" fill="none" xmlns="http://www.w3.org/2000/svg">
<path fill-rule="evenodd" clip-rule="evenodd" d="M43.4532 22.4666C42.2098 22.8108 40.5904 22.9543 39.2024 22.9543C35.5879 22.9543 33.2168 21.0895 33.2168 17.6756C33.2168 14.4338 35.4434 12.3396 38.6819 12.3396C39.4049 12.3396 40.1856 12.4256 40.6483 12.6551V7.9502H43.4532V22.4666ZM40.6483 15.0649C40.2145 14.8641 39.6073 14.7494 38.9133 14.7494C37.2073 14.7494 36.0795 15.7822 36.0795 17.5895C36.0795 19.5116 37.294 20.6018 39.2892 20.6018C39.6362 20.6018 40.1856 20.6018 40.6483 20.487V15.0649ZM66.5 22.4666C65.2565 22.8108 63.6372 22.9543 62.2203 22.9543C58.6346 22.9543 56.2345 21.0895 56.2345 17.6756C56.2345 14.4338 58.4611 12.3396 61.6998 12.3396C62.4516 12.3396 63.2034 12.4256 63.6661 12.6551V7.9502H66.5V22.4666ZM63.6661 15.0649C63.2323 14.8641 62.654 14.7494 61.96 14.7494C60.225 14.7494 59.0972 15.7822 59.0972 17.5895C59.0972 19.5116 60.3407 20.6018 62.3359 20.6018C62.6829 20.6018 63.2034 20.6018 63.6661 20.487V15.0649ZM47.8775 15.0649C48.3402 14.8641 49.0053 14.8067 49.5547 14.8067C51.2897 14.8067 52.4753 15.7822 52.4753 17.5322C52.4753 19.5977 51.1451 20.5444 49.3812 20.5731V22.9543H49.5258C53.1693 22.9543 55.338 20.9748 55.338 17.4461C55.338 14.233 53.0247 12.3396 49.6125 12.3396C47.8775 12.3396 46.1714 12.7412 45.0436 13.2002V26.8272H47.8775V15.0649Z" fill="#3F3F42"/>
<path fill-rule="evenodd" clip-rule="evenodd" d="M12.0044 0.378418C11.847 0.378418 11.6896 0.413429 11.5672 0.474698L0.603279 6.46157L12.8787 13.6213C12.9923 13.6826 13.0798 13.8314 13.0798 13.9627V24.3959C13.0798 24.5272 12.9836 24.676 12.8699 24.7373L12.2055 25.1049C12.153 25.1312 12.0831 25.1487 12.0044 25.1487H11.9869C11.9082 25.1487 11.8295 25.1399 11.777 25.1049L11.1126 24.7373C10.9989 24.676 10.9115 24.5272 10.9115 24.3959V15.0918C10.9115 15.0217 10.859 14.943 10.7978 14.908L0 8.60599V20.9473C0 21.2274 0.19235 21.56 0.437158 21.7001L11.576 28.2734C11.6984 28.3434 11.847 28.3784 12.0044 28.3784C12.1617 28.3784 12.3191 28.3434 12.4328 28.2734L23.5716 21.7001C23.8076 21.56 24 21.2187 24 20.9473V8.60599L16.6732 12.8773C16.5596 12.9473 16.3847 12.9386 16.271 12.8773L15.624 12.4922C15.5716 12.4572 15.5191 12.4047 15.4842 12.3434C15.4404 12.2646 15.4229 12.1946 15.4142 12.1246L15.3967 11.3631C15.3967 11.2318 15.4754 11.083 15.5891 11.013L23.3967 6.46157L12.4415 0.474698C12.3191 0.404676 12.1617 0.378418 12.0044 0.378418Z" fill="url(#paint0_linear_851_64)"/>
<defs>
<linearGradient id="paint0_linear_851_64" x1="4.18273" y1="24.1508" x2="14.3814" y2="15.6449" gradientUnits="userSpaceOnUse">
<stop stop-color="#A80034"/>
<stop offset="1" stop-color="#DB0031"/>
</linearGradient>
</defs>
</svg>
