<svg width="75" height="28" viewBox="0 0 75 28" fill="none" xmlns="http://www.w3.org/2000/svg">
<path fill-rule="evenodd" clip-rule="evenodd" d="M17.9864 1.73828V1.79375C17.9536 2.01303 17.8554 2.20172 17.6918 2.35981C17.4312 2.61193 17.0913 2.80508 16.7668 2.95106C13.4477 4.44443 10.2216 5.89467 7.08837 7.30178C6.9208 7.3772 6.74158 7.44404 6.55065 7.50227C5.72769 7.7532 4.87647 7.88907 3.99703 7.90991C3.65861 7.918 3.34434 7.88538 3.05421 7.81204C2.90639 7.77476 2.75659 7.71004 2.63324 7.62049C2.41994 7.46622 2.30486 7.21507 2.39878 6.96453C2.43978 6.85489 2.50063 6.75356 2.58132 6.66049C2.58478 6.65653 2.58671 6.65151 2.58677 6.64636C2.58683 6.64116 2.58502 6.63613 2.58165 6.63209L1.06607 4.81853C1.06471 4.81693 1.06375 4.81507 1.06326 4.81307C1.06277 4.81107 1.06276 4.80898 1.06324 4.80698C1.06372 4.80498 1.06468 4.80311 1.06603 4.80151C1.06738 4.79991 1.06909 4.79867 1.07104 4.79782L2.73972 4.04814C2.74947 4.04385 2.76051 4.04339 2.77048 4.04687L5.27982 4.96707C5.28462 4.96876 5.28971 4.96956 5.29484 4.96933C5.29993 4.96911 5.30497 4.96791 5.30955 4.96578L7.71903 3.86264C7.72092 3.86178 7.72259 3.86049 7.72384 3.85887C7.72513 3.85724 7.72596 3.85534 7.72633 3.85332C7.7267 3.85129 7.72652 3.8492 7.72592 3.84721C7.72527 3.84524 7.72416 3.84342 7.72263 3.84192L3.91766 0.123903C3.91667 0.12292 3.91599 0.121679 3.91569 0.120335C3.9154 0.118992 3.9155 0.117605 3.91599 0.116348C3.91649 0.11509 3.91735 0.114018 3.91847 0.113264C3.91959 0.112511 3.92091 0.112109 3.92229 0.11211C4.82024 0.0751369 5.71456 0.0378449 6.60522 0.000234472C6.64577 -0.00146544 6.68336 0.00607787 6.71799 0.0228645C8.29341 0.786338 9.81806 1.52516 11.2918 2.23933C11.2966 2.24162 11.3018 2.24284 11.3071 2.2429C11.3125 2.24296 11.3177 2.24184 11.3226 2.23965C12.2276 1.83146 13.1295 1.42635 14.0284 1.02432C15.0856 0.551324 16.3468 0.343828 17.406 0.943044C17.5159 1.00488 17.615 1.07553 17.7037 1.155C17.8803 1.31309 17.9745 1.50752 17.9864 1.73828ZM29.3613 16.4102V16.9044C29.2771 20.0338 27.8867 22.9733 25.5082 25.052C23.5519 26.7616 21.2363 27.7443 18.5612 28H16.5031C14.5873 27.8258 12.8516 27.269 11.2961 26.3298C9.93264 25.5064 8.79811 24.4855 7.89242 23.2671C6.49725 21.3892 5.76204 19.2723 5.68681 16.9164V16.3964C5.79316 13.6184 6.78254 11.2012 8.65491 9.14489C8.83681 8.94511 9.04383 8.75298 9.2513 8.5604L9.25135 8.56036C9.34336 8.47493 9.43552 8.38942 9.52559 8.30311C9.73931 8.09805 9.98253 7.91582 10.2225 7.73609L10.2226 7.73604L10.2226 7.736C10.2946 7.68204 10.3664 7.62831 10.437 7.57422C10.6628 7.40062 10.9062 7.25231 11.1526 7.10227L11.1527 7.10218C11.216 7.06364 11.2794 7.02498 11.3428 6.98578C11.5712 6.84444 11.7986 6.71969 12.0248 6.61156C12.0887 6.58102 12.1519 6.5504 12.2148 6.51996C12.4665 6.398 12.7127 6.2788 12.9769 6.17778C13.3033 6.05302 13.613 5.94356 13.9058 5.84933C14.0489 5.80342 14.3069 5.73333 14.6799 5.63911C14.9438 5.57244 15.1942 5.52102 15.4313 5.48489C15.5026 5.47404 15.5737 5.46276 15.6444 5.45151C15.9071 5.40978 16.1659 5.36862 16.4226 5.35289C16.5152 5.34707 16.6075 5.34053 16.6998 5.334C17.0853 5.30676 17.4689 5.2796 17.8588 5.304C17.9607 5.3104 18.0619 5.31551 18.1629 5.32067C18.3982 5.33258 18.6329 5.34444 18.8752 5.37244C20.422 5.55022 21.8678 5.996 23.2124 6.70978C23.3903 6.80431 23.6743 6.97009 24.0646 7.20711C24.3034 7.35249 24.524 7.51707 24.7431 7.68058L24.7431 7.68062C24.8027 7.72507 24.8622 7.76942 24.9219 7.81333C25.1185 7.95764 25.3101 8.11542 25.4966 8.28667C25.5459 8.33178 25.5952 8.37658 25.6445 8.42133C25.8447 8.60311 26.0444 8.78444 26.2355 8.98667C28.2103 11.0752 29.2522 13.5498 29.3613 16.4102ZM14.5278 9.48711C14.4442 9.66667 14.3625 9.84564 14.2827 10.024C14.2822 10.0253 14.2819 10.0268 14.2821 10.0281C14.2822 10.0296 14.2826 10.0309 14.2833 10.0321C14.2837 10.0327 14.284 10.0332 14.2845 10.0336C14.2847 10.0339 14.285 10.0342 14.2853 10.0344C14.2855 10.0347 14.2859 10.0348 14.2862 10.0351C14.2868 10.0355 14.2875 10.0358 14.2882 10.036C14.2888 10.0362 14.2894 10.0364 14.2901 10.0364C15.1147 10.1481 15.9414 10.2184 16.7704 10.2471C16.7796 10.2474 16.7842 10.243 16.7842 10.2338V6.90267C16.7842 6.90213 16.7842 6.9016 16.7841 6.90111C16.784 6.90049 16.7839 6.89982 16.7837 6.89924C16.7834 6.89836 16.783 6.89751 16.7826 6.89671C16.7815 6.89489 16.78 6.89333 16.7781 6.89227C16.7763 6.89116 16.7742 6.89049 16.772 6.89036C16.7698 6.89027 16.7677 6.89067 16.7657 6.89156C16.2358 7.13422 15.7896 7.55467 15.4354 8.008C15.0748 8.46933 14.7722 8.96236 14.5278 9.48711ZM20.6031 9.66622C20.3294 9.04813 19.9892 8.48298 19.5826 7.97067C19.2317 7.52889 18.8095 7.144 18.2893 6.89378C18.2866 6.89249 18.2837 6.89187 18.2807 6.892C18.2777 6.89213 18.2747 6.89302 18.2722 6.89453C18.2697 6.89604 18.2676 6.89813 18.2661 6.90067C18.2646 6.90316 18.2639 6.906 18.2639 6.90889V10.2218C18.2639 10.2387 18.2727 10.2468 18.2902 10.2462C19.1044 10.2172 19.9197 10.1474 20.7363 10.0369C20.7603 10.0336 20.7673 10.0213 20.7571 10C20.7062 9.89453 20.6549 9.78325 20.6031 9.66622ZM12.8063 9.74489C13.1342 8.87613 13.5748 8.06191 14.1278 7.30222C14.1469 7.27587 14.1407 7.268 14.1093 7.27867C13.5452 7.47302 12.9955 7.71258 12.4604 7.99733C12.2633 8.10222 12.0769 8.21849 11.8933 8.33311L11.8932 8.33316L11.8931 8.3332C11.8278 8.37396 11.7629 8.41449 11.6979 8.45422C11.4564 8.602 11.2322 8.7772 11.0093 8.95151C10.9198 9.02147 10.8305 9.09129 10.7403 9.15911C10.7385 9.16045 10.7371 9.16222 10.7363 9.16422C10.7355 9.16627 10.7353 9.16849 10.7356 9.17062C10.736 9.17276 10.737 9.17476 10.7384 9.17645C10.7399 9.17809 10.7418 9.17933 10.744 9.18C10.8161 9.2036 10.8886 9.22756 10.9615 9.25165H10.9615L10.9616 9.25169H10.9616C11.3321 9.37418 11.7113 9.49951 12.0896 9.592C12.314 9.64711 12.5405 9.70413 12.7693 9.76311C12.7768 9.76502 12.7847 9.76422 12.7916 9.76085C12.7984 9.75751 12.8037 9.75178 12.8063 9.74489ZM21.2532 7.39511C21.1497 7.35658 21.0433 7.32013 20.9342 7.28578C20.9095 7.27809 20.9045 7.28444 20.9189 7.30489C21.4641 8.06844 21.9108 8.87644 22.2395 9.74489C22.2417 9.75084 22.246 9.75582 22.2517 9.75885C22.2574 9.76191 22.2641 9.76276 22.2705 9.76133C22.9638 9.61111 23.6416 9.41658 24.3041 9.17778C24.3057 9.17716 24.3071 9.17613 24.3082 9.1748C24.3093 9.17351 24.31 9.17196 24.3103 9.17031C24.3105 9.16867 24.3104 9.16698 24.3098 9.16538C24.3095 9.16462 24.3091 9.16391 24.3086 9.1632C24.3084 9.16284 24.3081 9.16249 24.3078 9.16218C24.3075 9.16187 24.3072 9.1616 24.3069 9.16133C23.3732 8.39391 22.3553 7.8052 21.2532 7.39511ZM25.2465 10.3387C24.445 10.6637 23.6096 10.9246 22.7403 11.1213C22.7337 11.1229 22.728 11.1269 22.7245 11.1324C22.721 11.1379 22.7198 11.1444 22.7213 11.1507C22.7522 11.2812 22.7845 11.4128 22.817 11.5449C22.9067 11.9097 22.9974 12.2789 23.0612 12.6413C23.0967 12.8431 23.1325 13.0452 23.1689 13.2476C23.2241 13.5533 23.2593 13.8678 23.2941 14.1791C23.3011 14.241 23.308 14.3028 23.315 14.3644C23.3631 14.7811 23.3844 15.1965 23.4057 15.6124V15.6125V15.6126V15.6126V15.6127V15.6128C23.4112 15.7208 23.4168 15.8288 23.4228 15.9369C23.423 15.9417 23.4252 15.9462 23.4289 15.9495C23.4326 15.9528 23.4375 15.9547 23.4427 15.9547H27.8234C27.8256 15.9547 27.8279 15.9542 27.83 15.9534C27.8321 15.9525 27.834 15.9512 27.8355 15.9496C27.8371 15.948 27.8382 15.9461 27.8389 15.9441C27.8396 15.942 27.8398 15.9399 27.8396 15.9378C27.6617 13.8086 26.865 11.9253 25.4495 10.288C25.439 10.2756 25.4259 10.272 25.4101 10.2773C25.3562 10.2957 25.3016 10.3161 25.2465 10.3387ZM7.98675 12.8151C7.54993 13.8077 7.28914 14.8507 7.20438 15.944C7.20378 15.9511 7.20716 15.9547 7.21456 15.9547H11.5966C11.6053 15.9547 11.6137 15.9514 11.6199 15.9456C11.6261 15.9398 11.6297 15.9319 11.6299 15.9236C11.6673 14.6539 11.8099 13.4421 12.0581 12.288C12.1407 11.9037 12.231 11.5252 12.3291 11.1524C12.33 11.1491 12.3301 11.1456 12.3296 11.1421C12.3291 11.1386 12.3278 11.1353 12.3259 11.1323C12.324 11.1293 12.3215 11.1268 12.3186 11.1247C12.3156 11.1227 12.3123 11.1212 12.3087 11.1204C11.3818 10.9119 10.4944 10.6296 9.64674 10.2738C9.63227 10.2679 9.61992 10.2707 9.60975 10.2822C8.9322 11.0517 8.39121 11.896 7.98675 12.8151ZM13.1087 15.9347C13.1083 15.948 13.1153 15.9547 13.1295 15.9547H16.75C16.7591 15.9547 16.7678 15.9512 16.7742 15.945C16.7806 15.9388 16.7842 15.9305 16.7842 15.9218V11.6796C16.7842 11.6767 16.783 11.6739 16.7808 11.6719C16.7787 11.6698 16.7758 11.6686 16.7727 11.6684C15.789 11.6436 14.8039 11.5572 13.8175 11.4093C13.8135 11.4087 13.8094 11.4095 13.806 11.4116C13.8026 11.4136 13.8001 11.4168 13.799 11.4204C13.3844 12.8779 13.1543 14.3827 13.1087 15.9347ZM21.4299 12.1191C21.3756 11.9008 21.318 11.6705 21.2569 11.4284C21.2532 11.4133 21.2435 11.407 21.2278 11.4093C20.2444 11.5569 19.2639 11.6431 18.2861 11.668C18.2713 11.6686 18.2639 11.6759 18.2639 11.6898V15.9218C18.2639 15.9305 18.2675 15.9388 18.2739 15.945C18.2803 15.9512 18.289 15.9547 18.2981 15.9547H21.9269C21.9279 15.9547 21.9288 15.9546 21.9296 15.9544C21.9303 15.9542 21.931 15.954 21.9317 15.9538C21.9331 15.9532 21.9345 15.9523 21.9356 15.9512C21.9368 15.9502 21.9376 15.9489 21.9382 15.9475C21.9388 15.9461 21.939 15.9446 21.939 15.9431C21.9034 14.6627 21.7415 13.368 21.4299 12.1191ZM9.95654 23.0462C10.7392 22.725 11.5321 22.4692 12.3351 22.2787C12.3358 22.2785 12.3365 22.2783 12.3372 22.2781C12.338 22.2778 12.3389 22.2774 12.3397 22.277C12.3402 22.2768 12.3407 22.2765 12.3412 22.2762C12.3417 22.276 12.3422 22.2756 12.3427 22.2753C12.3449 22.2737 12.3469 22.2718 12.3483 22.2695C12.3498 22.2672 12.3508 22.2647 12.3512 22.2621C12.3516 22.2595 12.3515 22.2568 12.3508 22.2542C12.2728 21.9354 12.1954 21.6222 12.1187 21.3147C12.0564 21.0646 12.0103 20.8085 11.9646 20.5553V20.5553L11.9646 20.5551V20.555C11.9468 20.4564 11.9291 20.3584 11.9106 20.2613C11.8622 20.0056 11.8229 19.7444 11.7927 19.4778C11.7827 19.3904 11.7721 19.3025 11.7615 19.2144V19.2144C11.7287 18.9431 11.6957 18.6696 11.6803 18.3996C11.6615 18.0686 11.6435 17.7339 11.6262 17.3956C11.6259 17.3906 11.6236 17.386 11.6198 17.3826C11.616 17.3792 11.6111 17.3773 11.6059 17.3773H7.23583C7.21858 17.3773 7.21053 17.3856 7.21178 17.4022C7.25465 17.9441 7.33954 18.4695 7.46656 18.9782C7.8522 20.5249 8.5905 21.9092 9.68142 23.1311C9.69344 23.1448 9.7081 23.148 9.72535 23.1409C9.72567 23.1409 9.8027 23.1093 9.95654 23.0462ZM13.8046 21.9396C13.8073 21.9489 13.8135 21.957 13.822 21.9623C13.8306 21.9675 13.8408 21.9696 13.8508 21.968C14.8339 21.8083 15.8021 21.7105 16.7556 21.6747C16.7632 21.6744 16.7705 21.6713 16.7759 21.666C16.7812 21.6607 16.7842 21.6536 16.7842 21.6462V17.4107C16.7842 17.4018 16.7805 17.3933 16.7739 17.3871C16.7673 17.3808 16.7584 17.3773 16.7491 17.3773H13.1332C13.1171 17.3773 13.1093 17.385 13.1096 17.4004C13.1534 18.9364 13.385 20.4495 13.8046 21.9396ZM21.2523 21.8662C21.2534 21.8664 21.2546 21.8664 21.2557 21.8662C21.257 21.8659 21.2583 21.8654 21.2595 21.8647C21.2617 21.8632 21.2632 21.8611 21.2639 21.8587C21.6699 20.4077 21.8949 18.9219 21.939 17.4013C21.9396 17.3853 21.9316 17.3773 21.9149 17.3773H18.2875C18.2717 17.3773 18.2639 17.3848 18.2639 17.3996V21.6311C18.2639 21.6336 18.2644 21.636 18.2654 21.6383C18.2663 21.6405 18.2678 21.6426 18.2696 21.6443C18.2714 21.646 18.2735 21.6474 18.2759 21.6484C18.2767 21.6487 18.2776 21.649 18.2785 21.6492C18.2793 21.6494 18.28 21.6495 18.2808 21.6496C18.2812 21.6497 18.2816 21.6497 18.282 21.6497C18.2824 21.6498 18.2829 21.6498 18.2833 21.6498C19.2589 21.6572 20.2486 21.7293 21.2523 21.8662ZM25.3607 22.9182C25.4051 22.936 25.4502 22.9499 25.4962 22.96C25.51 22.963 25.5214 22.9591 25.5304 22.9484C26.8969 21.3339 27.6691 19.4806 27.847 17.3884C27.8471 17.387 27.8469 17.3856 27.8464 17.3843C27.8459 17.3829 27.8452 17.3817 27.8442 17.3806C27.8432 17.3796 27.842 17.3788 27.8406 17.3782C27.8402 17.378 27.8399 17.3779 27.8396 17.3778C27.8392 17.3777 27.839 17.3776 27.8386 17.3776C27.8378 17.3774 27.8371 17.3773 27.8363 17.3773H23.4454C23.4391 17.3773 23.433 17.3797 23.4284 17.3839C23.4238 17.3881 23.4212 17.3939 23.4209 17.4C23.408 17.8053 23.3863 18.1902 23.3557 18.5547C23.2522 19.7858 23.0481 20.9679 22.7435 22.1009C22.7425 22.1048 22.7423 22.1088 22.7429 22.1127C22.7435 22.1166 22.7449 22.1204 22.7471 22.1238C22.7492 22.1272 22.7521 22.1301 22.7555 22.1325C22.7575 22.1339 22.7597 22.135 22.762 22.136C22.7635 22.1365 22.765 22.137 22.7667 22.1373C23.668 22.3267 24.5327 22.587 25.3607 22.9182ZM20.7774 23.28C20.7808 23.272 20.7842 23.2644 20.7876 23.2573C20.7916 23.2481 20.7885 23.2431 20.7784 23.2422C20.7582 23.2401 20.738 23.2379 20.7177 23.2357C20.6969 23.2335 20.6762 23.2313 20.6554 23.2291L20.6081 23.224L20.6048 23.2236H20.6046H20.6046C20.1139 23.1708 19.6009 23.1156 19.1082 23.0978C18.8502 23.0883 18.578 23.077 18.2916 23.064C18.2731 23.0631 18.2639 23.0716 18.2639 23.0893V26.4249C18.2639 26.4424 18.2719 26.4471 18.2879 26.4391C18.6785 26.2504 19.0359 25.9768 19.3602 25.6182C19.9789 24.9347 20.4145 24.1382 20.7774 23.28ZM16.7583 26.4373C16.7756 26.4456 16.7842 26.4404 16.7842 26.4218V23.1196C16.7842 23.1015 16.775 23.093 16.7565 23.0942C15.9118 23.1387 15.0987 23.2208 14.3169 23.3404C14.3058 23.3419 14.3024 23.3477 14.3067 23.3578C14.6077 24.0622 14.9767 24.7498 15.4622 25.3569C15.8183 25.8031 16.2349 26.1809 16.7583 26.4373ZM22.2668 23.5138C21.9371 24.4044 21.4849 25.2547 20.9268 26.0209C20.9052 26.0508 20.9123 26.0596 20.9481 26.0471C22.232 25.605 23.3849 24.9539 24.4068 24.0938C24.4086 24.0922 24.4099 24.0903 24.4108 24.088C24.4116 24.0858 24.4117 24.0835 24.4112 24.0812C24.411 24.08 24.4106 24.079 24.4101 24.078C24.4096 24.0769 24.4089 24.0759 24.4081 24.075C24.4065 24.0732 24.4044 24.0719 24.4021 24.0711C24.2815 24.0345 24.1591 23.9957 24.0357 23.9566L24.0332 23.9558L24.0329 23.9557C23.7121 23.854 23.3839 23.75 23.0607 23.6751C22.803 23.6152 22.5509 23.5551 22.3043 23.4947C22.2966 23.4929 22.2885 23.4938 22.2816 23.4974C22.2747 23.5009 22.2694 23.5068 22.2668 23.5138ZM14.1121 26.0453C14.146 26.0566 14.1526 26.048 14.1319 26.0196C13.5987 25.2912 13.1663 24.4999 12.8349 23.6453C12.8341 23.6435 12.833 23.6417 12.8317 23.6403C12.8303 23.6387 12.8286 23.6374 12.8267 23.6365C12.8229 23.6346 12.8186 23.6341 12.8146 23.6351C12.1503 23.7886 11.4914 23.9876 10.8379 24.232C10.8361 24.2326 10.8345 24.2337 10.8332 24.2352C10.833 24.2355 10.8327 24.2358 10.8325 24.2361C10.8317 24.2373 10.8312 24.2387 10.831 24.2401C10.8307 24.2419 10.8309 24.2438 10.8316 24.2455C10.8324 24.2472 10.8336 24.2487 10.8351 24.2498C11.0179 24.3843 11.2045 24.5221 11.395 24.6631C11.7053 24.8924 12.0761 25.1169 12.397 25.2942C12.9507 25.5997 13.5224 25.8501 14.1121 26.0453ZM1.3369 11.6919C1.46433 11.057 1.72038 10.4616 2.10507 9.9056C2.14435 9.8492 2.1817 9.79413 2.21711 9.74045C2.34745 9.54387 2.35631 9.34587 2.24877 9.12693C2.15135 8.92889 1.87593 8.89 1.66671 8.89809C1.51593 8.90387 1.36612 9.02276 1.30046 9.1396C1.27223 9.19009 1.23842 9.23364 1.20484 9.27689C1.16171 9.33249 1.11897 9.38756 1.08895 9.45609C1.06049 9.52098 1.02254 9.57911 0.984757 9.63702C0.940756 9.70449 0.896972 9.7716 0.868627 9.84858C0.839534 9.92822 0.797151 9.99973 0.75512 10.0707C0.704478 10.1561 0.65435 10.2407 0.628609 10.3376C0.586827 10.4959 0.524335 10.653 0.441133 10.8089C0.409293 10.8684 0.388145 10.934 0.374064 10.9994C0.218985 11.7071 0.110351 12.3728 0.0481627 12.9963C0.0431089 13.0495 0.038119 13.1108 0.0472726 13.1631C0.0765106 13.3299 0.0862597 13.4899 0.0765203 13.6432C0.0688506 13.7674 0.089237 13.8864 0.109755 14.0061C0.125852 14.1001 0.142029 14.1945 0.144804 14.2923C0.14751 14.3763 0.166403 14.4576 0.185501 14.5397C0.197656 14.592 0.209894 14.6446 0.218094 14.6986C0.232837 14.7944 0.252879 14.8941 0.278223 14.9976C0.337207 15.2412 0.395435 15.4563 0.452906 15.643C0.546988 15.9481 0.688271 16.3264 0.876756 16.7779C0.907247 16.8514 0.943651 16.921 0.979967 16.9905C1.01702 17.0614 1.05398 17.1321 1.08447 17.2065C1.13304 17.3244 1.19064 17.4347 1.25729 17.5376C1.34077 17.6668 1.41382 17.7998 1.48723 17.9334C1.58199 18.1059 1.67735 18.2795 1.79651 18.4476C2.2315 19.06 2.68186 19.6522 3.1476 20.224C3.34513 20.4663 3.57023 20.6924 3.79054 20.9136L3.79057 20.9137L3.79066 20.9138C3.84557 20.9689 3.90017 21.0237 3.95397 21.0784C4.09559 21.2225 4.24571 21.266 4.40435 21.2089C4.56197 21.1523 4.65605 21.1071 4.68661 21.0733C4.91499 20.8208 4.92548 20.5676 4.7181 20.3136C4.55739 20.1163 4.3821 19.9285 4.20855 19.7426C4.01855 19.539 3.83062 19.3377 3.66624 19.1287L3.66286 19.1244C3.30843 18.6736 2.95031 18.2182 2.64806 17.7316C2.47123 17.4474 2.32667 17.2023 2.21435 16.9961C2.04857 16.6924 1.8885 16.357 1.73412 15.9899C1.69069 15.8868 1.65487 15.7784 1.61892 15.6697L1.61891 15.6697C1.58863 15.5781 1.55825 15.4863 1.52314 15.3969C1.46718 15.254 1.42075 15.1053 1.38386 14.9508C1.29267 14.5697 1.22758 14.194 1.18858 13.8239C1.14754 13.4321 1.14334 13.0704 1.176 12.7388C1.20724 12.4195 1.26087 12.0705 1.3369 11.6919ZM38.379 11.5624V12.8H33.6495V7.13778H38.2696V8.37538H35.299V9.32987H37.9162V10.527H35.299V11.5624H38.379ZM42.9741 12.8L41.7538 11.0447L40.5504 12.8H38.6485L40.7944 9.93653L38.7411 7.13778H40.6177L41.7959 8.77173L42.9572 7.13778H44.7582L42.7048 9.87182L44.8928 12.8H42.9741ZM47.9712 7.13778C48.5043 7.13778 48.9672 7.22404 49.3597 7.39662C49.7528 7.56378 50.0556 7.80644 50.2688 8.12462C50.482 8.43738 50.5888 8.8068 50.5888 9.2328C50.5888 9.6588 50.482 10.0282 50.2688 10.341C50.0556 10.6537 49.7528 10.8964 49.3597 11.069C48.9672 11.2361 48.5043 11.3197 47.9712 11.3197H46.9447V12.8H45.2784V7.13778H47.9712ZM47.8704 10.0579C48.2126 10.0579 48.4706 9.98778 48.6444 9.84756C48.8187 9.70196 48.9057 9.49702 48.9057 9.2328C48.9057 8.96858 48.8187 8.76365 48.6444 8.61804C48.4706 8.47244 48.2126 8.39964 47.8704 8.39964H46.9447V10.0579H47.8704ZM53.9763 11.2955H53.0672V12.8H51.4012V7.13778H54.0942C54.6269 7.13778 55.0897 7.22404 55.4827 7.39662C55.8753 7.56378 56.1782 7.80644 56.3913 8.12462C56.6045 8.43738 56.7113 8.8068 56.7113 9.2328C56.7113 9.64262 56.6101 10.0012 56.4084 10.3086C56.2119 10.6106 55.9285 10.8479 55.5581 11.0204L56.8292 12.8H55.0449L53.9763 11.2955ZM55.0282 9.2328C55.0282 8.96858 54.9413 8.76365 54.7674 8.61804C54.5931 8.47244 54.3351 8.39964 53.9929 8.39964H53.0672V10.0579H53.9929C54.3351 10.0579 54.5931 9.98778 54.7674 9.84756C54.9413 9.70196 55.0282 9.49702 55.0282 9.2328ZM62.3599 11.5624V12.8H57.6306V7.13778H62.2508V8.37538H59.2799V9.32987H61.897V10.527H59.2799V11.5624H62.3599ZM65.3548 12.9132C64.8781 12.9132 64.4152 12.8566 63.9663 12.7434C63.5177 12.6301 63.1529 12.4792 62.8722 12.2904L63.4192 11.1094C63.6828 11.2766 63.9889 11.4114 64.3366 11.5139C64.6843 11.6163 65.0265 11.6676 65.3631 11.6676C66.0031 11.6676 66.3226 11.5139 66.3226 11.2065C66.3226 11.0447 66.2301 10.9261 66.0452 10.8506C65.8653 10.7697 65.5735 10.6861 65.1699 10.5998C64.7264 10.5081 64.356 10.4111 64.0587 10.3086C63.7614 10.2008 63.5062 10.0309 63.293 9.79902C63.0798 9.56716 62.9735 9.25436 62.9735 8.86071C62.9735 8.5156 63.0715 8.20551 63.268 7.93049C63.4641 7.65009 63.7559 7.42898 64.1429 7.2672C64.5359 7.10542 65.0154 7.02453 65.5823 7.02453C65.9693 7.02453 66.3508 7.06769 66.7267 7.15396C67.1027 7.23484 67.4337 7.35618 67.7195 7.51796L67.2062 8.70702C66.6453 8.41582 66.1011 8.27022 65.5735 8.27022C65.2429 8.27022 65.0015 8.31876 64.8499 8.41582C64.6987 8.50751 64.6228 8.62885 64.6228 8.77982C64.6228 8.9308 64.7126 9.04404 64.892 9.11956C65.0714 9.19507 65.3604 9.27324 65.7589 9.35413C66.2075 9.44582 66.5778 9.54556 66.8696 9.65342C67.1669 9.75587 67.4222 9.92307 67.6353 10.1549C67.8545 10.3814 67.9636 10.6915 67.9636 11.0852C67.9636 11.4249 67.8656 11.7323 67.6691 12.0073C67.473 12.2823 67.1785 12.5034 66.7855 12.6706C66.3929 12.8324 65.9162 12.9132 65.3548 12.9132ZM70.8036 12.9132C70.3269 12.9132 69.8641 12.8566 69.4151 12.7434C68.9661 12.6301 68.6017 12.4792 68.3211 12.2904L68.8681 11.1094C69.1316 11.2766 69.4377 11.4114 69.7855 11.5139C70.1332 11.6163 70.4753 11.6676 70.812 11.6676C71.4514 11.6676 71.7714 11.5139 71.7714 11.2065C71.7714 11.0447 71.679 10.9261 71.4935 10.8506C71.3141 10.7697 71.0224 10.6861 70.6187 10.5998C70.1752 10.5081 69.8049 10.4111 69.5076 10.3086C69.2102 10.2008 68.955 10.0309 68.7418 9.79902C68.5287 9.56716 68.4219 9.25436 68.4219 8.86071C68.4219 8.5156 68.5203 8.20551 68.7164 7.93049C68.9129 7.65009 69.2047 7.42898 69.5917 7.2672C69.9847 7.10542 70.4642 7.02453 71.0307 7.02453C71.4182 7.02453 71.7996 7.06769 72.1756 7.15396C72.5515 7.23484 72.8821 7.35618 73.1683 7.51796L72.6551 8.70702C72.0942 8.41582 71.5499 8.27022 71.0224 8.27022C70.6913 8.27022 70.4504 8.31876 70.2987 8.41582C70.147 8.50751 70.0717 8.62885 70.0717 8.77982C70.0717 8.9308 70.1614 9.04404 70.3408 9.11956C70.5202 9.19507 70.8092 9.27324 71.2078 9.35413C71.6563 9.44582 72.0267 9.54556 72.3184 9.65342C72.6158 9.75587 72.871 9.92307 73.0842 10.1549C73.3029 10.3814 73.4125 10.6915 73.4125 11.0852C73.4125 11.4249 73.3144 11.7323 73.1179 12.0073C72.9214 12.2823 72.6269 12.5034 72.2343 12.6706C71.8417 12.8324 71.3645 12.9132 70.8036 12.9132ZM34.3732 20.9817C34.7884 21.1111 35.2176 21.1758 35.6608 21.1758C36.1602 21.1758 36.5809 21.1057 36.9232 20.9655C37.2654 20.8199 37.5207 20.6258 37.689 20.3831C37.8573 20.1351 37.9414 19.8627 37.9414 19.5661C37.9414 19.2102 37.8433 18.9271 37.6469 18.7168C37.4562 18.5065 37.2261 18.3501 36.9568 18.2476C36.6875 18.1452 36.3312 18.0427 35.888 17.9403C35.5458 17.8648 35.2737 17.7947 35.0717 17.73C34.8754 17.6599 34.7099 17.5655 34.5752 17.4468C34.4406 17.3228 34.3732 17.1637 34.3732 16.9696C34.3732 16.7054 34.4911 16.4896 34.7267 16.3225C34.9679 16.1553 35.327 16.0717 35.8039 16.0717C36.0732 16.0717 36.3481 16.1122 36.6286 16.1931C36.9091 16.2686 37.1728 16.3818 37.4197 16.5328L37.6974 15.8857C37.4562 15.7239 37.1672 15.5999 36.8306 15.5136C36.494 15.4273 36.1517 15.3842 35.8039 15.3842C35.3046 15.3842 34.8866 15.457 34.55 15.6026C34.2134 15.7482 33.9609 15.9423 33.7926 16.185C33.6299 16.4276 33.5485 16.7 33.5485 17.002C33.5485 17.3632 33.6439 17.6518 33.8347 17.8675C34.031 18.0778 34.2638 18.2342 34.5331 18.3366C34.808 18.4391 35.1671 18.5416 35.6103 18.644C35.9638 18.7249 36.2359 18.7977 36.4266 18.8624C36.623 18.9271 36.7857 19.0215 36.9147 19.1455C37.0494 19.2641 37.1167 19.4205 37.1167 19.6147C37.1167 19.8789 36.9961 20.0919 36.7548 20.2537C36.5136 20.4101 36.1489 20.4883 35.6608 20.4883C35.2905 20.4883 34.9287 20.4289 34.5752 20.3103C34.2274 20.1863 33.9412 20.0272 33.7168 19.8331L33.4055 20.464C33.6411 20.6743 33.9637 20.8469 34.3732 20.9817ZM44.237 21.1111V15.4489H43.3955V17.8836H40.0124V15.4489H39.1709V21.1111H40.0124V18.5874H43.3955V21.1111H44.237ZM46.842 15.4489H46.0003V21.1111H46.842V15.4489ZM52.7038 15.9747C52.2663 15.6241 51.6662 15.4489 50.9027 15.4489H48.6056V21.1111H49.4471V19.3963H50.9027C51.6662 19.3963 52.2663 19.221 52.7038 18.8705C53.1416 18.52 53.3604 18.0373 53.3604 17.4226C53.3604 16.8078 53.1416 16.3252 52.7038 15.9747ZM52.098 18.369C51.8174 18.5847 51.4105 18.6925 50.8778 18.6925H49.4471V16.1526H50.8778C51.4105 16.1526 51.8174 16.2632 52.098 16.4843C52.3782 16.7 52.5188 17.0128 52.5188 17.4226C52.5188 17.8324 52.3782 18.1479 52.098 18.369ZM58.695 15.9747C58.2576 15.6241 57.6569 15.4489 56.894 15.4489H54.5968V21.1111H55.4384V19.3963H56.894C57.6569 19.3963 58.2576 19.221 58.695 18.8705C59.1324 18.52 59.3516 18.0373 59.3516 17.4226C59.3516 16.8078 59.1324 16.3252 58.695 15.9747ZM58.0892 18.369C57.8086 18.5847 57.4017 18.6925 56.869 18.6925H55.4384V16.1526H56.869C57.4017 16.1526 57.8086 16.2632 58.0892 16.4843C58.3695 16.7 58.51 17.0128 58.51 17.4226C58.51 17.8324 58.3695 18.1479 58.0892 18.369ZM61.4291 15.4489H60.5875V21.1111H61.4291V15.4489ZM68.2591 21.1111V15.4489H67.4175V19.6713L63.883 15.4489H63.1931V21.1111H64.0347V16.8887L67.5692 21.1111H68.2591ZM74.912 18.2476H74.1037V20.0919C73.7112 20.3346 73.2511 20.4559 72.724 20.4559C72.2805 20.4559 71.8796 20.3616 71.5203 20.1728C71.1671 19.984 70.8892 19.7252 70.6871 19.3963C70.4851 19.0619 70.3842 18.6898 70.3842 18.28C70.3842 17.8648 70.4851 17.4927 70.6871 17.1637C70.8892 16.8294 71.1671 16.5705 71.5203 16.3872C71.8796 16.1984 72.2833 16.1041 72.7323 16.1041C73.4 16.1041 73.9692 16.3225 74.4404 16.7593L74.9624 16.2578C74.6928 15.972 74.365 15.7563 73.9775 15.6107C73.596 15.4597 73.1697 15.3842 72.6985 15.3842C72.0983 15.3842 71.5569 15.5082 71.0741 15.7563C70.5974 16.0043 70.2215 16.3495 69.9468 16.7916C69.6773 17.2338 69.5427 17.73 69.5427 18.28C69.5427 18.83 69.6773 19.3262 69.9468 19.7684C70.2215 20.2052 70.5974 20.5503 71.0741 20.8037C71.5513 21.0518 72.0868 21.1758 72.6819 21.1758C73.1027 21.1758 73.5063 21.1138 73.8933 20.9898C74.2808 20.8657 74.6202 20.6878 74.912 20.4559V18.2476Z" fill="black"/>
</svg>
