<svg width="70" height="22" viewBox="0 0 70 22" fill="none" xmlns="http://www.w3.org/2000/svg">
<path fill-rule="evenodd" clip-rule="evenodd" d="M63.3964 21.1424L60.5692 17.9924L57.7685 21.1424H51.8758L57.6348 14.711L51.8758 8.2795H57.9529L60.807 11.4036L63.5548 8.2795H69.4197L63.6867 14.6842L69.5 21.1424H63.3964ZM40.5529 21.1424V0.878418H51.8758V5.39561H45.3483V8.2795H51.8758V12.6244H45.3483V16.6134H51.8758V21.1424H40.5529Z" fill="#FF7A08"/>
<path fill-rule="evenodd" clip-rule="evenodd" d="M35.7787 0.878418V9.17155H35.7244C34.6673 7.96389 33.3468 7.5444 31.8145 7.5444C28.6489 7.5444 26.2964 9.71072 25.486 12.5495C24.5537 9.41922 22.1174 7.48609 18.4696 7.48609C15.5078 7.48609 13.2008 8.83489 11.9959 11.0003V8.27907H5.9188V5.39517H12.5513V0.878418H0.5V21.1424H5.9188V12.6244H11.35C11.1863 13.2548 11.072 13.9136 11.072 14.6277C11.072 18.8547 14.321 21.8214 18.4696 21.8214C21.9586 21.8214 24.2572 20.1938 25.4736 17.2275H20.8304C20.2026 18.1204 19.7252 18.3835 18.4691 18.3835C17.0136 18.3835 15.7584 17.1223 15.7584 15.6254H25.2389C25.6514 18.98 28.2562 21.8784 31.867 21.8784C33.4258 21.8784 34.8531 21.1183 35.7244 19.8313H35.7787V21.1429H40.5533V0.878418H35.7787ZM15.9097 12.6849C16.2102 11.3975 17.2148 10.5572 18.4691 10.5572C19.851 10.5572 20.8044 11.3729 21.055 12.6849H15.9097ZM32.8791 18.0578C31.1187 18.0578 30.025 16.4271 30.025 14.7267C30.025 12.9076 30.9758 11.1586 32.8791 11.1586C34.8531 11.1586 35.6379 12.9076 35.6379 14.7267C35.6379 16.4512 34.805 18.0578 32.8791 18.0578Z" fill="#462895"/>
</svg>
