<svg width="259" height="28" viewBox="0 0 259 28" fill="none" xmlns="http://www.w3.org/2000/svg">
<path d="M123.515 27.2982H118.158L106.027 8.96847V27.2982H100.67V0.549805H106.027L118.158 18.9178V0.549805H123.515V27.2982Z" fill="white"/>
<path d="M95.397 0.583984V27.2941H90.0397V15.9289H78.5979V27.2941H73.2406V0.583984H78.5979V11.5665H90.0397V0.583984H95.397Z" fill="white"/>
<path d="M42.5671 13.9034C42.5671 11.2757 43.1538 8.92872 44.3273 6.86232C45.5264 4.77041 47.1463 3.15045 49.1872 2.00245C51.2536 0.828942 53.5624 0.242188 56.1135 0.242188C59.0983 0.242188 61.7132 1.00752 63.9581 2.53819C66.2031 4.06885 67.7721 6.18628 68.6649 8.89045H62.504C61.8917 7.6149 61.0244 6.65823 59.9019 6.02045C58.8049 5.38267 57.5293 5.06379 56.0752 5.06379C54.519 5.06379 53.1287 5.4337 51.9041 6.17352C50.7051 6.88783 49.7612 7.90828 49.0724 9.23485C48.4091 10.5614 48.0775 12.1176 48.0775 13.9034C48.0775 15.6637 48.4091 17.2198 49.0724 18.5719C49.7612 19.8985 50.7051 20.9317 51.9041 21.6715C53.1287 22.3858 54.519 22.743 56.0752 22.743C57.5293 22.743 58.8049 22.4241 59.9019 21.7863C61.0244 21.123 61.8917 20.1536 62.504 18.8781H68.6649C67.7721 21.6077 66.2031 23.7379 63.9581 25.2686C61.7387 26.7737 59.1238 27.5263 56.1135 27.5263C53.5624 27.5263 51.2536 26.9523 49.1872 25.8043C47.1463 24.6308 45.5264 23.0109 44.3273 20.9445C43.1538 18.8781 42.5671 16.531 42.5671 13.9034Z" fill="white"/>
<path d="M28.8588 4.9122V11.6089H37.8515V15.8565H28.8588V22.9358H38.9995V27.2982H23.5015V0.549805H38.9995V4.9122H28.8588Z" fill="white"/>
<path d="M19.5929 0.583984V4.90812H12.4753V27.2941H7.11797V4.90812H0.000366211V0.583984H19.5929Z" fill="white"/>
<g clip-path="url(#clip0_851_41)">
<path fill-rule="evenodd" clip-rule="evenodd" d="M146.165 8.17971C145.014 7.41055 143.661 7 142.276 7V0C145.045 0 147.752 0.821086 150.054 2.35943C152.356 3.89776 154.151 6.08427 155.211 8.64241C156.27 11.2006 156.547 14.0155 156.007 16.7313C155.467 19.447 154.134 21.9416 152.176 23.8995C150.218 25.8574 147.723 27.1908 145.007 27.731C142.292 28.2712 139.477 27.9939 136.919 26.9343C134.36 25.8747 132.174 24.0803 130.636 21.778C129.097 19.4757 128.276 16.7689 128.276 14H135.276C135.276 15.3845 135.687 16.7378 136.456 17.889C137.225 19.0401 138.318 19.9373 139.597 20.4672C140.876 20.997 142.284 21.1356 143.642 20.8655C145 20.5954 146.247 19.9287 147.226 18.9498C148.205 17.9708 148.872 16.7235 149.142 15.3656C149.412 14.0078 149.273 12.6003 148.743 11.3212C148.214 10.0421 147.316 8.94887 146.165 8.17971Z" fill="#B15FFF"/>
<path fill-rule="evenodd" clip-rule="evenodd" d="M135.276 3.03188e-06C135.276 0.919257 135.095 1.82951 134.743 2.67878C134.392 3.52807 133.876 4.29974 133.226 4.94975C132.576 5.59977 131.804 6.11538 130.955 6.46716C130.106 6.81894 129.195 7 128.276 7L128.276 14C130.115 14 131.935 13.6379 133.634 12.9343C135.332 12.2308 136.876 11.1995 138.176 9.89947C139.476 8.5995 140.507 7.05614 141.21 5.35757C141.914 3.65901 142.276 1.8385 142.276 0L135.276 3.03188e-06Z" fill="#B15FFF"/>
</g>
<path d="M251.281 27.3039L241.561 15.4029V27.3039H236.204V0.59375H241.561V12.5712L251.281 0.59375H257.748L246.727 13.834L258.054 27.3039H251.281Z" fill="white"/>
<path d="M225.465 27.3039L219.572 16.8953H217.046V27.3039H211.689V0.59375H221.714C223.781 0.59375 225.541 0.96366 226.995 1.70348C228.449 2.41779 229.534 3.39997 230.248 4.65002C230.988 5.87455 231.358 7.25215 231.358 8.78281C231.358 10.5431 230.847 12.1375 229.827 13.5661C228.807 14.9693 227.289 15.9387 225.273 16.4744L231.664 27.3039H225.465ZM217.046 12.8773H221.523C222.977 12.8773 224.061 12.5329 224.776 11.8441C225.49 11.1298 225.847 10.1477 225.847 8.89762C225.847 7.67308 225.49 6.72917 224.776 6.06588C224.061 5.37708 222.977 5.03268 221.523 5.03268H217.046V12.8773Z" fill="white"/>
<path d="M200.675 22.2117H190.037L188.276 27.3011H182.651L192.256 0.552734H198.494L208.099 27.3011H202.435L200.675 22.2117ZM199.221 17.9258L195.356 6.75194L191.491 17.9258H199.221Z" fill="white"/>
<path d="M180.493 8.85935C180.493 10.288 180.149 11.6273 179.46 12.8773C178.797 14.1274 177.738 15.1351 176.284 15.9004C174.855 16.6658 173.044 17.0484 170.85 17.0484H166.373V27.3039H161.016V0.59375H170.85C172.916 0.59375 174.677 0.950905 176.131 1.66522C177.585 2.37953 178.669 3.3617 179.384 4.61175C180.123 5.86179 180.493 7.27766 180.493 8.85935ZM170.62 12.7243C172.1 12.7243 173.197 12.3926 173.911 11.7294C174.626 11.0406 174.983 10.0839 174.983 8.85935C174.983 6.25721 173.529 4.95615 170.62 4.95615H166.373V12.7243H170.62Z" fill="white"/>
<defs>
<clipPath id="clip0_851_41">
<rect width="28" height="28" fill="white" transform="translate(128.276)"/>
</clipPath>
</defs>
</svg>
