<svg width="390" height="64" viewBox="0 0 390 64" fill="none" xmlns="http://www.w3.org/2000/svg">
<rect width="390" height="64" fill="white"/>
<path d="M135.515 45.2982H130.158L118.027 26.9685V45.2982H112.67V18.5498H118.027L130.158 36.9178V18.5498H135.515V45.2982Z" fill="#1C1C1C"/>
<path d="M107.397 18.584V45.2941H102.04V33.9289H90.5979V45.2941H85.2406V18.584H90.5979V29.5665H102.04V18.584H107.397Z" fill="#1C1C1C"/>
<path d="M54.567 31.9034C54.567 29.2757 55.1538 26.9287 56.3273 24.8623C57.5263 22.7704 59.1463 21.1505 61.1871 20.0025C63.2535 18.8289 65.5623 18.2422 68.1134 18.2422C71.0982 18.2422 73.7131 19.0075 75.9581 20.5382C78.2031 22.0689 79.772 24.1863 80.6649 26.8905H74.504C73.8917 25.6149 73.0243 24.6582 71.9018 24.0205C70.8048 23.3827 69.5293 23.0638 68.0751 23.0638C66.519 23.0638 65.1286 23.4337 63.9041 24.1735C62.7051 24.8878 61.7611 25.9083 61.0723 27.2349C60.4091 28.5614 60.0774 30.1176 60.0774 31.9034C60.0774 33.6637 60.4091 35.2198 61.0723 36.5719C61.7611 37.8985 62.7051 38.9317 63.9041 39.6715C65.1286 40.3858 66.519 40.743 68.0751 40.743C69.5293 40.743 70.8048 40.4241 71.9018 39.7863C73.0243 39.123 73.8917 38.1536 74.504 36.8781H80.6649C79.772 39.6077 78.2031 41.7379 75.9581 43.2686C73.7386 44.7737 71.1237 45.5263 68.1134 45.5263C65.5623 45.5263 63.2535 44.9523 61.1871 43.8043C59.1463 42.6308 57.5263 41.0109 56.3273 38.9445C55.1538 36.8781 54.567 34.531 54.567 31.9034Z" fill="#1C1C1C"/>
<path d="M40.8588 22.9122V29.6089H49.8515V33.8565H40.8588V40.9358H50.9995V45.2982H35.5015V18.5498H50.9995V22.9122H40.8588Z" fill="#1C1C1C"/>
<path d="M31.5929 18.584V22.9081H24.4753V45.2941H19.118V22.9081H12.0004V18.584H31.5929Z" fill="#1C1C1C"/>
<g clip-path="url(#clip0_1_2245)">
<path fill-rule="evenodd" clip-rule="evenodd" d="M158.165 26.1797C157.014 25.4105 155.661 25 154.276 25V18C157.045 18 159.752 18.8211 162.054 20.3594C164.356 21.8978 166.151 24.0843 167.21 26.6424C168.27 29.2006 168.547 32.0155 168.007 34.7313C167.467 37.447 166.134 39.9416 164.176 41.8995C162.218 43.8574 159.723 45.1908 157.007 45.731C154.292 46.2712 151.477 45.9939 148.919 44.9343C146.36 43.8747 144.174 42.0803 142.636 39.778C141.097 37.4757 140.276 34.7689 140.276 32H147.276C147.276 33.3845 147.687 34.7378 148.456 35.889C149.225 37.0401 150.318 37.9373 151.597 38.4672C152.876 38.997 154.284 39.1356 155.642 38.8655C157 38.5954 158.247 37.9287 159.226 36.9498C160.205 35.9708 160.872 34.7235 161.142 33.3656C161.412 32.0078 161.273 30.6003 160.743 29.3212C160.213 28.0421 159.316 26.9489 158.165 26.1797Z" fill="#B15FFF"/>
<path fill-rule="evenodd" clip-rule="evenodd" d="M147.276 18C147.276 18.9193 147.095 19.8295 146.743 20.6788C146.391 21.5281 145.876 22.2997 145.226 22.9498C144.576 23.5998 143.804 24.1154 142.955 24.4672C142.106 24.8189 141.195 25 140.276 25L140.276 32C142.115 32 143.935 31.6379 145.634 30.9343C147.332 30.2308 148.876 29.1995 150.176 27.8995C151.476 26.5995 152.507 25.0561 153.21 23.3576C153.914 21.659 154.276 19.8385 154.276 18L147.276 18Z" fill="#B15FFF"/>
</g>
<path d="M263.281 45.3039L253.561 33.4029V45.3039H248.204V18.5938H253.561V30.5712L263.281 18.5938H269.748L258.727 31.834L270.054 45.3039H263.281Z" fill="#1C1C1C"/>
<path d="M237.465 45.3039L231.572 34.8953H229.046V45.3039H223.689V18.5938H233.714C235.781 18.5938 237.541 18.9637 238.995 19.7035C240.449 20.4178 241.534 21.4 242.248 22.65C242.988 23.8745 243.358 25.2521 243.358 26.7828C243.358 28.5431 242.847 30.1375 241.827 31.5661C240.807 32.9693 239.289 33.9387 237.273 34.4744L243.664 45.3039H237.465ZM229.046 30.8773H233.523C234.977 30.8773 236.061 30.5329 236.776 29.8441C237.49 29.1298 237.847 28.1477 237.847 26.8976C237.847 25.6731 237.49 24.7292 236.776 24.0659C236.061 23.3771 234.977 23.0327 233.523 23.0327H229.046V30.8773Z" fill="#1C1C1C"/>
<path d="M212.675 40.2117H202.037L200.276 45.3011H194.651L204.256 18.5527H210.494L220.099 45.3011H214.435L212.675 40.2117ZM211.221 35.9258L207.356 24.7519L203.491 35.9258H211.221Z" fill="#1C1C1C"/>
<path d="M192.493 26.8593C192.493 28.288 192.149 29.6273 191.46 30.8773C190.797 32.1274 189.738 33.1351 188.284 33.9004C186.855 34.6658 185.044 35.0484 182.85 35.0484H178.373V45.3039H173.016V18.5938H182.85C184.916 18.5938 186.677 18.9509 188.131 19.6652C189.585 20.3795 190.669 21.3617 191.384 22.6117C192.123 23.8618 192.493 25.2777 192.493 26.8593ZM182.62 30.7243C184.1 30.7243 185.197 30.3926 185.911 29.7294C186.626 29.0406 186.983 28.0839 186.983 26.8593C186.983 24.2572 185.529 22.9561 182.62 22.9561H178.373V30.7243H182.62Z" fill="#1C1C1C"/>
<path d="M364 26L352 38" stroke="#1F1F1F" stroke-width="2" stroke-linecap="round" stroke-linejoin="round"/>
<path d="M352 26L364 38" stroke="#1F1F1F" stroke-width="2" stroke-linecap="round" stroke-linejoin="round"/>
<defs>
<clipPath id="clip0_1_2245">
<rect width="28" height="28" fill="white" transform="translate(140.276 18)"/>
</clipPath>
</defs>
</svg>
