<svg width="29" height="28" viewBox="0 0 29 28" fill="none" xmlns="http://www.w3.org/2000/svg">
<g clip-path="url(#clip0_851_49)">
<path fill-rule="evenodd" clip-rule="evenodd" d="M18.1652 8.17971C17.014 7.41055 15.6606 7 14.2762 7V0C17.0451 0 19.7519 0.821086 22.0542 2.35943C24.3565 3.89776 26.1508 6.08427 27.2105 8.64241C28.2701 11.2006 28.5474 14.0155 28.0072 16.7313C27.467 19.447 26.1336 21.9416 24.1757 23.8995C22.2178 25.8574 19.7232 27.1908 17.0074 27.731C14.2917 28.2712 11.4767 27.9939 8.91859 26.9343C6.36045 25.8747 4.17394 24.0803 2.63561 21.778C1.09727 19.4757 0.276184 16.7689 0.276184 14H7.27618C7.27618 15.3845 7.68673 16.7378 8.45589 17.889C9.22505 19.0401 10.3183 19.9373 11.5974 20.4672C12.8765 20.997 14.284 21.1356 15.6418 20.8655C16.9997 20.5954 18.2469 19.9287 19.226 18.9498C20.2049 17.9708 20.8716 16.7235 21.1416 15.3656C21.4118 14.0078 21.2732 12.6003 20.7433 11.3212C20.2135 10.0421 19.3163 8.94887 18.1652 8.17971Z" fill="#B15FFF"/>
<path fill-rule="evenodd" clip-rule="evenodd" d="M7.27618 3.03188e-06C7.27618 0.919257 7.09513 1.82951 6.74334 2.67878C6.39156 3.52807 5.87594 4.29974 5.22593 4.94975C4.57592 5.59977 3.80425 6.11538 2.95497 6.46716C2.10569 6.81894 1.19543 7 0.276184 7L0.276184 14C2.11469 14 3.93519 13.6379 5.63376 12.9343C7.33232 12.2308 8.87568 11.1995 10.1757 9.89947C11.4757 8.5995 12.5069 7.05614 13.2105 5.35757C13.9141 3.65901 14.2762 1.8385 14.2762 0L7.27618 3.03188e-06Z" fill="#B15FFF"/>
</g>
<defs>
<clipPath id="clip0_851_49">
<rect width="28" height="28" fill="white" transform="translate(0.276184)"/>
</clipPath>
</defs>
</svg>
