<svg width="33" height="8" viewBox="0 0 33 8" fill="none" xmlns="http://www.w3.org/2000/svg">
<path d="M0.561594 0.250977L5.01342 0.250977L5.01342 1.17174L3.26056 1.17174L3.26056 6.36223L2.29979 6.36223L2.29979 1.17174L0.55426 1.17174L0.561594 0.250977ZM4.82274 1.93768L5.64416 1.93768L5.64416 2.79326L5.65883 2.79326C5.68817 2.67103 5.73951 2.55696 5.81285 2.44288C5.88619 2.3288 5.9742 2.22287 6.08421 2.13324C6.18689 2.03546 6.30423 1.96213 6.43625 1.90509C6.56093 1.84805 6.69295 1.81546 6.82496 1.81546C6.92764 1.81546 7.00098 1.8236 7.03765 1.8236C7.07432 1.83175 7.11833 1.8399 7.155 1.8399L7.155 2.77696C7.09632 2.76066 7.03032 2.75251 6.96431 2.74437C6.8983 2.73622 6.83963 2.72807 6.77362 2.72807C6.62694 2.72807 6.48759 2.76066 6.35558 2.82585C6.22356 2.89104 6.11355 2.98882 6.01087 3.11104C5.91553 3.24141 5.83485 3.39623 5.77618 3.58365C5.7175 3.77106 5.68817 3.99106 5.68817 4.23551L5.68817 6.33778L4.80807 6.33778L4.82274 1.93768ZM11.1888 6.36223L10.3234 6.36223L10.3234 5.74296L10.3087 5.74296C10.1987 5.97111 10.0373 6.14222 9.82463 6.28075C9.61194 6.41927 9.39191 6.48445 9.17189 6.48445C8.65117 6.48445 8.26979 6.34593 8.0351 6.05259C7.8004 5.7674 7.68306 5.32739 7.68306 4.74886L7.68306 1.93768L8.56315 1.93768L8.56315 4.65108C8.56315 5.0422 8.62916 5.31924 8.76851 5.47406C8.90053 5.63703 9.09121 5.71851 9.33324 5.71851C9.51659 5.71851 9.67061 5.68592 9.79529 5.62073C9.91997 5.55554 10.0227 5.47406 10.096 5.36813C10.1767 5.2622 10.228 5.13183 10.2647 4.98516C10.3013 4.83849 10.316 4.67552 10.316 4.50441L10.316 1.93768L11.1961 1.93768L11.1961 6.36223L11.1888 6.36223ZM12.6849 4.94442C12.7143 5.22961 12.8096 5.42517 12.9783 5.5474C13.147 5.66147 13.3524 5.71851 13.587 5.71851C13.6677 5.71851 13.7631 5.71036 13.8657 5.69406C13.9684 5.67777 14.0711 5.65332 14.1591 5.61258C14.2545 5.57184 14.3278 5.5148 14.3865 5.43332C14.4451 5.35183 14.4745 5.25406 14.4671 5.13183C14.4598 5.00961 14.4231 4.90368 14.3425 4.82219C14.2618 4.74071 14.1664 4.68367 14.0491 4.62663C13.9318 4.57774 13.7924 4.537 13.6384 4.50441C13.4844 4.47181 13.3304 4.43107 13.169 4.39033C13.0077 4.34959 12.8463 4.3007 12.6923 4.24366C12.5383 4.18662 12.4063 4.11329 12.2816 4.00736C12.1642 3.90958 12.0615 3.78736 11.9955 3.63254C11.9222 3.47772 11.8855 3.29845 11.8855 3.0703C11.8855 2.82585 11.9369 2.63029 12.0469 2.46732C12.1496 2.30436 12.2889 2.17398 12.4503 2.0762C12.6116 1.97842 12.795 1.90509 12.993 1.86435C13.191 1.82361 13.3817 1.80731 13.5577 1.80731C13.7631 1.80731 13.9611 1.83176 14.1444 1.88065C14.3278 1.92954 14.5038 2.00287 14.6505 2.11695C14.8045 2.22287 14.9292 2.36954 15.0245 2.54066C15.1272 2.71177 15.1859 2.92363 15.2152 3.16808L14.2985 3.16808C14.2545 2.93178 14.1591 2.77696 14.0124 2.69548C13.8584 2.614 13.6897 2.57325 13.4917 2.57325C13.433 2.57325 13.3524 2.5814 13.2717 2.58955C13.1837 2.60585 13.1103 2.62214 13.0297 2.65474C12.9563 2.68733 12.8903 2.73622 12.839 2.79326C12.7876 2.8503 12.7583 2.93178 12.7583 3.02956C12.7583 3.15178 12.795 3.24142 12.8683 3.31475C12.9416 3.38808 13.037 3.44512 13.1617 3.50216C13.279 3.55105 13.4184 3.5918 13.5724 3.62439C13.7264 3.65698 13.8878 3.69772 14.0491 3.73846C14.2105 3.77921 14.3645 3.8281 14.5185 3.88513C14.6725 3.94217 14.8119 4.01551 14.9292 4.12144C15.0465 4.21922 15.1492 4.34144 15.2226 4.48811C15.2959 4.63478 15.3326 4.82219 15.3326 5.03405C15.3326 5.2948 15.2812 5.5148 15.1712 5.70221C15.0612 5.88148 14.9219 6.0363 14.7532 6.15037C14.5845 6.26445 14.3865 6.34593 14.1811 6.40297C13.9684 6.45186 13.7631 6.48445 13.5577 6.48445C13.3084 6.48445 13.0737 6.45186 12.861 6.38667C12.6483 6.32149 12.4576 6.22371 12.3036 6.10148C12.1496 5.97111 12.0249 5.81629 11.9369 5.62073C11.8489 5.43332 11.7975 5.20517 11.7902 4.93627L12.6776 4.93627L12.6776 4.94442L12.6849 4.94442ZM15.5819 1.93768L16.2493 1.93768L16.2493 0.601356L17.1294 0.601356L17.1294 1.92953L17.9215 1.92953L17.9215 2.65474L17.1294 2.65474L17.1294 5.01775C17.1294 5.12368 17.1368 5.20517 17.1441 5.28665C17.1514 5.35998 17.1735 5.42517 17.1955 5.47406C17.2248 5.52295 17.2688 5.56369 17.3201 5.58814C17.3788 5.61258 17.4521 5.62888 17.5548 5.62888C17.6135 5.62888 17.6795 5.62888 17.7382 5.62073C17.7969 5.61258 17.8629 5.60443 17.9215 5.58814L17.9215 6.34593C17.8262 6.36223 17.7308 6.37038 17.6355 6.37853C17.5402 6.39482 17.4521 6.39482 17.3495 6.39482C17.1148 6.39482 16.9314 6.37038 16.7921 6.32149C16.6527 6.2726 16.5427 6.19926 16.462 6.10963C16.3814 6.01185 16.33 5.89777 16.3007 5.75925C16.2713 5.62073 16.2567 5.44961 16.2493 5.27035L16.2493 2.66288L15.5819 2.66288L15.5819 1.92139L15.5819 1.93768ZM18.5376 1.93768L19.3664 1.93768L19.3664 2.54066L19.381 2.54066C19.5057 2.27991 19.6744 2.10065 19.8944 1.98657C20.1144 1.8725 20.3491 1.81546 20.6132 1.81546C20.9285 1.81546 21.1999 1.8725 21.4346 2.00287C21.6693 2.1251 21.86 2.28806 22.014 2.50807C22.168 2.71992 22.2854 2.97252 22.3587 3.25771C22.432 3.54291 22.476 3.85254 22.476 4.17033C22.476 4.47181 22.4394 4.75701 22.3734 5.03405C22.3 5.31109 22.1973 5.56369 22.058 5.77555C21.9186 5.98741 21.7426 6.15852 21.5226 6.28889C21.3026 6.41927 21.0532 6.48446 20.7599 6.48446C20.6352 6.48446 20.5032 6.46816 20.3785 6.44371C20.2538 6.41927 20.1291 6.37853 20.0118 6.32149C19.8944 6.26445 19.7844 6.19111 19.6891 6.10148C19.5864 6.01185 19.5057 5.90592 19.4397 5.79185L19.425 5.79185L19.425 8.00004L18.5449 8.00004L18.5449 1.93768L18.5376 1.93768ZM21.6106 4.15403C21.6106 3.95847 21.5886 3.76291 21.5373 3.5755C21.4933 3.38809 21.4199 3.22512 21.3246 3.07845C21.2292 2.93178 21.1119 2.8177 20.9799 2.72807C20.8405 2.63844 20.6792 2.5977 20.5032 2.5977C20.1364 2.5977 19.8578 2.73622 19.6671 3.02141C19.4837 3.3066 19.3884 3.68958 19.3884 4.16218C19.3884 4.39033 19.4104 4.59404 19.4617 4.78145C19.513 4.96886 19.5791 5.13183 19.6817 5.27035C19.7771 5.40887 19.8944 5.5148 20.0338 5.59628C20.1731 5.67777 20.3271 5.71851 20.5105 5.71851C20.7158 5.71851 20.8772 5.66962 21.0165 5.57999C21.1559 5.49036 21.2659 5.36813 21.3613 5.22961C21.4493 5.08294 21.5153 4.91997 21.5519 4.73256C21.5886 4.537 21.6106 4.34959 21.6106 4.15403ZM23.1581 0.250979L24.0382 0.250979L24.0382 1.17174L23.1581 1.17174L23.1581 0.250979ZM23.1581 1.93768L24.0382 1.93768L24.0382 6.36223L23.1581 6.36223L23.1581 1.93768ZM24.823 0.250979L25.7031 0.250979L25.7031 6.36223L24.823 6.36223L24.823 0.250979ZM28.3874 6.48446C28.072 6.48446 27.786 6.42742 27.5366 6.30519C27.2872 6.18297 27.0819 6.02815 26.9059 5.82444C26.7372 5.62073 26.6052 5.36813 26.5172 5.08294C26.4292 4.79775 26.3778 4.47996 26.3778 4.14588C26.3778 3.8118 26.4218 3.50216 26.5172 3.21697C26.6052 2.93178 26.7372 2.68733 26.9059 2.47547C27.0746 2.27177 27.2872 2.1088 27.5366 1.99472C27.786 1.88065 28.072 1.81546 28.3874 1.81546C28.7027 1.81546 28.9888 1.8725 29.2381 1.99472C29.4875 2.1088 29.6928 2.27177 29.8689 2.47547C30.0376 2.67918 30.1696 2.93178 30.2576 3.21697C30.3456 3.50216 30.3969 3.8118 30.3969 4.14588C30.3969 4.48811 30.3529 4.79775 30.2576 5.08294C30.1622 5.36813 30.0376 5.61258 29.8689 5.82444C29.7002 6.02815 29.4875 6.19111 29.2381 6.30519C28.9888 6.41927 28.7101 6.48446 28.3874 6.48446ZM28.3874 5.71036C28.5781 5.71036 28.7541 5.66147 28.8934 5.57184C29.0401 5.48221 29.1501 5.35999 29.2455 5.21332C29.3408 5.06665 29.4068 4.89553 29.4508 4.71627C29.4948 4.52885 29.5168 4.34144 29.5168 4.14588C29.5168 3.95847 29.4948 3.77106 29.4508 3.58365C29.4068 3.39624 29.3408 3.23327 29.2455 3.0866C29.1501 2.93993 29.0328 2.82585 28.8934 2.73622C28.7467 2.64659 28.5781 2.5977 28.3874 2.5977C28.1967 2.5977 28.0207 2.64659 27.8813 2.73622C27.7346 2.82585 27.6246 2.94808 27.5293 3.0866C27.4339 3.23327 27.3679 3.39624 27.3239 3.58365C27.2799 3.77106 27.2579 3.95847 27.2579 4.14588C27.2579 4.34144 27.2799 4.52885 27.3239 4.71627C27.3679 4.90368 27.4339 5.06664 27.5293 5.21332C27.6246 5.35999 27.742 5.48221 27.8813 5.57184C28.028 5.66962 28.1967 5.71036 28.3874 5.71036ZM30.661 1.93768L31.3284 1.93768L31.3284 0.601357L32.2085 0.601357L32.2085 1.92953L33.0006 1.92953L33.0006 2.65474L32.2085 2.65474L32.2085 5.01776C32.2085 5.12368 32.2158 5.20517 32.2231 5.28665C32.2305 5.35999 32.2525 5.42517 32.2745 5.47406C32.3038 5.52295 32.3478 5.56369 32.3992 5.58814C32.4578 5.61258 32.5312 5.62888 32.6338 5.62888C32.6925 5.62888 32.7585 5.62888 32.8172 5.62073C32.8759 5.61258 32.9419 5.60444 33.0006 5.58814L33.0006 6.34593C32.9052 6.36223 32.8099 6.37038 32.7145 6.37853C32.6192 6.39482 32.5312 6.39482 32.4285 6.39482C32.1938 6.39482 32.0104 6.37038 31.8711 6.32149C31.7317 6.2726 31.6217 6.19926 31.5411 6.10963C31.4604 6.01185 31.409 5.89777 31.3797 5.75925C31.3504 5.62073 31.3357 5.44962 31.3284 5.27035L31.3284 2.66288L30.661 2.66288L30.661 1.92139L30.661 1.93768Z" fill="black"/>
</svg>
