<svg width="30" height="36" viewBox="0 0 30 36" fill="none" xmlns="http://www.w3.org/2000/svg">
<path d="M15 35.5062C15.2944 35.3573 22.9492 32.0068 25.3782 29.9965C27.8807 27.9118 29.2056 24.9336 29.2056 21.3598V4.60748L28.9848 4.53302C22.8756 1.18256 15.2944 1.40592 14.9264 1.40592C14.632 1.40592 7.05075 1.18256 0.941611 4.53302L0.794403 4.60748V21.4342C0.794403 25.0081 2.11928 27.9862 4.62181 30.071C7.05075 32.0813 14.7056 35.4317 15 35.5062Z" fill="#341B14"/>
<path d="M15 35.8784C15 35.8784 6.90352 32.3046 4.40098 30.2943C1.75124 28.0607 0.499969 25.008 0.499969 21.5087V4.08627C6.90352 0.586901 15 0.884719 15 0.884719C15 0.884719 23.0964 0.586901 29.5 4.08627V21.4342C29.5 24.9336 28.2487 27.9862 25.599 30.2199C23.0964 32.3046 15 35.8784 15 35.8784ZM1.67763 21.5087C1.67763 24.7847 2.8553 27.465 5.13703 29.3264C7.19794 31.0389 13.3071 33.7937 15 34.5382C16.6929 33.7937 22.8756 30.9644 24.8629 29.3264C27.1446 27.465 28.3223 24.7102 28.3223 21.5087V4.38409C19.7842 3.56509 9.62687 4.01182 1.67763 11.4573V21.5087Z" fill="#FFB406"/>
<path d="M23.17 19.0513C24.2741 19.7214 24.7157 20.1681 24.7893 20.9871C24.7893 21.8806 24.2005 22.4018 23.2436 22.4018C22.434 22.4018 21.4771 21.9551 20.8147 21.3594V23.742C21.6244 24.1887 22.5812 24.561 23.6117 24.561C26.1142 24.561 27.2919 22.7741 27.2919 21.1361C27.3655 19.647 26.9238 18.4557 24.7893 17.19C23.8325 16.5943 23.0964 16.222 23.0964 15.3286C23.0964 14.4351 23.9061 14.0629 24.5685 14.0629C25.4518 14.0629 26.335 14.584 26.8502 15.1052V12.8716C26.4086 12.4993 25.4518 11.9781 24.0533 12.0526C22.3604 12.127 20.5939 13.3183 20.5939 15.403C20.6675 16.8177 21.1091 17.86 23.17 19.0513ZM14.4848 24.4121C14.7056 24.4865 15.0736 24.561 15.6624 24.561C18.533 24.561 20.1523 21.9551 20.1523 18.2323C20.1523 14.4351 18.4594 12.127 15.4416 12.127C14.0431 12.127 12.9391 12.4249 11.9822 13.0205V29.8473H14.4848V24.4121ZM14.4848 14.2862C14.7056 14.2118 15.0736 14.0629 15.368 14.0629C16.8401 14.0629 17.4289 15.2541 17.4289 18.1579C17.4289 20.9871 16.6929 22.3273 15.2208 22.3273C14.8528 22.3273 14.5584 22.2529 14.4112 22.1784V14.2862H14.4848ZM6.75633 24.561C8.30202 24.561 9.62689 24.1887 10.5837 23.5186V12.2759H8.0076V22.0295C7.71319 22.2529 7.34517 22.3273 6.82994 22.3273C5.65227 22.3273 5.50507 21.2105 5.50507 20.5404V12.2759H2.92892V20.3915C2.92892 23.1463 4.2538 24.561 6.75633 24.561Z" fill="#FFB406"/>
</svg>
